<svg xmlns="http://www.w3.org/2000/svg" width="17" height="16"><path fill="#A7B6C2" d="M16.704 9.807v6.176h-3.58V10.22c0-1.447-.518-2.435-1.814-2.435-.99 0-1.578.666-1.837 1.31-.095.23-.119.55-.119.872v6.015H5.773s.048-9.759 0-10.77h3.58V6.74l-.023.035h.024V6.74c.475-.733 1.325-1.78 3.227-1.78 2.356 0 4.123 1.54 4.123 4.847zM2.027.022C.8.022 0 .825 0 1.882c0 1.034.778 1.862 1.979 1.862h.024c1.249 0 2.026-.828 2.026-1.862C4.005.825 3.252.022 2.027.022zM.213 15.982h3.58V5.214H.213v10.77z"/></svg>
