<svg xmlns="http://www.w3.org/2000/svg" width="20" height="17"><path fill="#A7B6C2" d="M6.281 16.4c7.425 0 11.488-6.157 11.488-11.488 0-.173 0-.347-.008-.52a8.226 8.226 0 002.016-2.094 8.183 8.183 0 01-2.323.637A4.062 4.062 0 0019.234.7a8.031 8.031 0 01-2.567.977A4.03 4.03 0 0013.722.4a4.043 4.043 0 00-4.04 4.04c0 .314.04.621.103.92a11.466 11.466 0 01-8.323-4.22 4.049 4.049 0 001.252 5.394A4.084 4.084 0 01.887 6.03v.055a4.046 4.046 0 003.237 3.96 3.936 3.936 0 01-1.063.142 3.97 3.97 0 01-.756-.07 4.038 4.038 0 003.771 2.803 8.098 8.098 0 01-5.015 1.732 7.77 7.77 0 01-.961-.055A11.485 11.485 0 006.281 16.4"/></svg>