<?xml version="1.0" encoding="UTF-8"?>
<svg width="16px" height="16px" viewBox="0 0 16 16" version="1.1" xmlns="http://www.w3.org/2000/svg" xmlns:xlink="http://www.w3.org/1999/xlink">
    <!-- Generator: Sketch 52.6 (67491) - http://www.bohemiancoding.com/sketch -->
    <title>Shape</title>
    <desc>Created with Sketch.</desc>
    <g id="Page-1" stroke="none" stroke-width="1" fill="none" fill-rule="evenodd">
        <g id="log-in" fill="#F5F8FA" fill-rule="nonzero">
            <path d="M11,8 C11,7.72 10.89,7.47 10.71,7.29 L7.71,4.29 C7.53,4.11 7.28,4 7,4 C6.45,4 6,4.45 6,5 C6,5.28 6.11,5.53 6.29,5.71 L7.59,7 L1,7 C0.45,7 0,7.45 0,8 C0,8.55 0.45,9 1,9 L7.59,9 L6.3,10.29 C6.11,10.47 6,10.72 6,11 C6,11.55 6.45,12 7,12 C7.28,12 7.53,11.89 7.71,11.71 L10.71,8.71 C10.89,8.53 11,8.28 11,8 Z M15,0 L9,0 C8.45,0 8,0.45 8,1 C8,1.55 8.45,2 9,2 L14,2 L14,14 L9,14 C8.45,14 8,14.45 8,15 C8,15.55 8.45,16 9,16 L15,16 C15.55,16 16,15.55 16,15 L16,1 C16,0.45 15.55,0 15,0 Z" id="Shape"></path>
        </g>
    </g>
</svg>
