<svg xmlns="http://www.w3.org/2000/svg" width="16" height="16" viewBox="0 0 16 16">
  <path fill="#F5F8FA" d="M7,14 L2,14 L2,2 L7,2 C7.55,2 8,1.55 8,1 C8,0.45 7.55,0 7,0 L1,0 C0.45,0 0,0.45 0,1 L0,15 C0,15.55 0.45,16 1,16 L7,16 C7.55,16 8,15.55 8,15 C8,14.45 7.55,14 7,14 Z M15.71,7.29 L12.71,4.29 C12.53,4.11 12.28,4 12,4 C11.45,4 11,4.45 11,5 C11,5.28 11.11,5.53 11.29,5.71 L12.59,7 L6,7 C5.45,7 5,7.45 5,8 C5,8.55 5.45,9 6,9 L12.59,9 L11.3,10.29 C11.11,10.47 11,10.72 11,11 C11,11.55 11.45,12 12,12 C12.28,12 12.53,11.89 12.71,11.71 L15.71,8.71 C15.89,8.53 16,8.28 16,8 C16,7.72 15.89,7.47 15.71,7.29 Z"/>
</svg>
