<?xml version="1.0" encoding="UTF-8"?>
<svg width="20px" height="18px" viewBox="0 0 20 18" version="1.1" xmlns="http://www.w3.org/2000/svg" xmlns:xlink="http://www.w3.org/1999/xlink">
    <!-- Generator: Sketch 53.1 (72631) - https://sketchapp.com -->
    <title>th</title>
    <desc>Created with Sketch.</desc>
    <g id="Symbols" stroke="none" stroke-width="1" fill="none" fill-rule="evenodd">
        <g id="table/dark" fill="#A7B6C2" fill-rule="nonzero">
            <g id="th">
                <path d="M19,0 L1,0 C0.4,0 0,0.5 0,1 L0,17 C0,17.5 0.4,18 1,18 L19,18 C19.5,18 20,17.5 20,17 L20,1 C20,0.5 19.5,0 19,0 L19,0 Z M7,16 L2,16 L2,13 L7,13 L7,16 L7,16 Z M7,12 L2,12 L2,9 L7,9 L7,12 L7,12 Z M7,8 L2,8 L2,5 L7,5 L7,8 L7,8 Z M18,16 L8,16 L8,13 L18,13 L18,16 L18,16 Z M18,12 L8,12 L8,9 L18,9 L18,12 L18,12 Z M18,8 L8,8 L8,5 L18,5 L18,8 L18,8 Z" id="Shape"></path>
            </g>
        </g>
    </g>
</svg>
